<svg width="807" height="141" viewBox="0 0 807 141" fill="none" xmlns="http://www.w3.org/2000/svg">
<path d="M0.0800004 139V1.56H27.44V50.68H40.4V1.56H67.76V139H40.4V76.6H27.44V139H0.0800004ZM117.424 139V1.56H172.464V28.12H145.424V54.84H171.344V80.76H145.424V112.28H174.224V139H117.424ZM220.861 139V1.56H248.381V115.64H276.701V139H220.861ZM321.955 1.56H358.275C369.262 1.56 377.102 5.13333 381.795 12.28C386.488 19.32 388.835 29.6667 388.835 43.32C388.835 56.9733 386.755 67.2667 382.595 74.2C378.435 81.1333 370.968 84.6 360.195 84.6H348.995V139H321.955V1.56ZM350.595 59.8C353.902 59.8 356.302 59.2133 357.795 58.04C359.395 56.76 360.408 55 360.835 52.76C361.368 50.4133 361.635 47.1067 361.635 42.84C361.635 37.08 360.995 32.92 359.715 30.36C358.435 27.8 355.875 26.52 352.035 26.52H348.995V59.8H350.595ZM434.924 139V1.56H489.964V28.28H462.604V50.2H488.524V76.6H462.604V139H434.924ZM536.33 139V1.56H591.37V28.12H564.33V54.84H590.25V80.76H564.33V112.28H593.13V139H536.33ZM672.408 140.28C659.928 140.28 650.914 137.187 645.368 131C639.821 124.813 637.048 114.84 637.048 101.08V87.64H664.088V104.76C664.088 111.587 666.274 115 670.648 115C673.101 115 674.808 114.307 675.768 112.92C676.728 111.427 677.208 108.973 677.208 105.56C677.208 101.08 676.674 97.4 675.608 94.52C674.541 91.5333 673.154 89.08 671.448 87.16C669.848 85.1333 666.914 82.04 662.648 77.88L650.808 66.04C641.634 57.08 637.048 47.16 637.048 36.28C637.048 24.5467 639.714 15.64 645.048 9.56C650.488 3.37333 658.381 0.279993 668.728 0.279993C681.101 0.279993 690.008 3.58666 695.448 10.2C700.888 16.7067 703.608 26.9467 703.608 40.92H675.608L675.448 31.48C675.448 29.6667 674.914 28.2267 673.848 27.16C672.888 26.0933 671.501 25.56 669.688 25.56C667.554 25.56 665.954 26.1467 664.888 27.32C663.821 28.4933 663.288 30.0933 663.288 32.12C663.288 36.6 665.848 41.24 670.968 46.04L686.968 61.4C690.701 65.0267 693.794 68.4933 696.248 71.8C698.701 75 700.674 78.84 702.168 83.32C703.661 87.6933 704.408 92.92 704.408 99C704.408 112.547 701.901 122.84 696.888 129.88C691.981 136.813 683.821 140.28 672.408 140.28ZM762.858 139V27.96H746.538V1.56H806.698V27.96H790.378V139H762.858Z" fill="#100E21"/>
</svg>
